<svg width="36" height="36" viewBox="0 0 36 36" fill="none" xmlns="http://www.w3.org/2000/svg">
<path d="M10.1268 15.7571H12.3767C14.008 15.9934 15.5154 14.8571 15.7517 13.2259C15.7854 12.9446 15.7854 12.6634 15.7517 12.3821V10.1321C15.9879 8.5009 14.8517 6.99341 13.2205 6.75716C12.9392 6.72341 12.658 6.72341 12.3767 6.75716H10.1268C8.49552 6.52091 6.98803 7.65716 6.75179 9.2884C6.71804 9.56965 6.71804 9.8509 6.75179 10.1321V12.3821C6.51554 14.0134 7.65178 15.5209 9.28301 15.7571C9.56426 15.7909 9.8455 15.7909 10.1268 15.7571Z" stroke="#808080" stroke-miterlimit="10" stroke-linecap="round" stroke-linejoin="round"/>
<path d="M23.6268 15.7571H25.8767C27.508 15.9934 29.0154 14.8571 29.2517 13.2259C29.2854 12.9446 29.2854 12.6634 29.2517 12.3821V10.1321C29.4879 8.5009 28.3517 6.99341 26.7205 6.75716C26.4392 6.72341 26.158 6.72341 25.8767 6.75716H23.6268C21.9955 6.52091 20.488 7.65716 20.2518 9.2884C20.218 9.56965 20.218 9.8509 20.2518 10.1321V12.3821C20.0155 14.0134 21.1518 15.5209 22.783 15.7571C23.0643 15.7909 23.3455 15.7909 23.6268 15.7571Z" stroke="#808080" stroke-miterlimit="10" stroke-linecap="round" stroke-linejoin="round"/>
<path d="M23.6268 29.2572H25.8767C27.508 29.4935 29.0154 28.3572 29.2517 26.7259C29.2854 26.4447 29.2854 26.1634 29.2517 25.8822V23.6322C29.4879 22.0009 28.3517 20.4934 26.7205 20.2572C26.4392 20.2234 26.158 20.2234 25.8767 20.2572H23.6268C21.9955 20.0209 20.488 21.1572 20.2518 22.7884C20.218 23.0697 20.218 23.3509 20.2518 23.6322V25.8822C20.0155 27.5134 21.1518 29.021 22.783 29.2572C23.0643 29.291 23.3455 29.291 23.6268 29.2572Z" stroke="#808080" stroke-miterlimit="10" stroke-linecap="round" stroke-linejoin="round"/>
<path d="M10.1268 29.2572H12.3767C14.008 29.4935 15.5154 28.3572 15.7517 26.7259C15.7854 26.4447 15.7854 26.1634 15.7517 25.8822V23.6322C15.9879 22.0009 14.8517 20.4934 13.2205 20.2572C12.9392 20.2234 12.658 20.2234 12.3767 20.2572H10.1268C8.49552 20.0209 6.98803 21.1572 6.75179 22.7884C6.71804 23.0697 6.71804 23.3509 6.75179 23.6322V25.8822C6.51554 27.5134 7.65178 29.021 9.28301 29.2572C9.56426 29.291 9.8455 29.291 10.1268 29.2572Z" stroke="#808080" stroke-miterlimit="10" stroke-linecap="round" stroke-linejoin="round"/>
</svg>
