<svg width="36" height="36" viewBox="0 0 36 36" fill="none" xmlns="http://www.w3.org/2000/svg">
<path d="M10.1268 15.7576H12.3767C14.008 15.9939 15.5154 14.8576 15.7517 13.2264C15.7854 12.9451 15.7854 12.6639 15.7517 12.3826V10.1326C15.9879 8.50139 14.8517 6.9939 13.2205 6.75765C12.9392 6.7239 12.658 6.7239 12.3767 6.75765H10.1268C8.49552 6.5214 6.98803 7.65764 6.75179 9.28889C6.71804 9.57014 6.71804 9.85139 6.75179 10.1326V12.3826C6.51554 14.0139 7.65178 15.5214 9.28301 15.7576C9.56426 15.7914 9.8455 15.7914 10.1268 15.7576Z" fill="#808080" stroke="#808080" stroke-miterlimit="10" stroke-linecap="round" stroke-linejoin="round"/>
<path d="M23.6268 15.7576H25.8767C27.508 15.9939 29.0154 14.8576 29.2517 13.2264C29.2854 12.9451 29.2854 12.6639 29.2517 12.3826V10.1326C29.4879 8.50139 28.3517 6.9939 26.7205 6.75765C26.4392 6.7239 26.158 6.7239 25.8767 6.75765H23.6268C21.9955 6.5214 20.488 7.65764 20.2518 9.28889C20.218 9.57014 20.218 9.85139 20.2518 10.1326V12.3826C20.0155 14.0139 21.1518 15.5214 22.783 15.7576C23.0643 15.7914 23.3455 15.7914 23.6268 15.7576Z" fill="#808080" stroke="#808080" stroke-miterlimit="10" stroke-linecap="round" stroke-linejoin="round"/>
<path d="M23.6268 29.2577H25.8767C27.508 29.4939 29.0154 28.3577 29.2517 26.7264C29.2854 26.4452 29.2854 26.1639 29.2517 25.8827V23.6327C29.4879 22.0014 28.3517 20.4939 26.7205 20.2576C26.4392 20.2239 26.158 20.2239 25.8767 20.2576H23.6268C21.9955 20.0214 20.488 21.1576 20.2518 22.7889C20.218 23.0701 20.218 23.3514 20.2518 23.6327V25.8827C20.0155 27.5139 21.1518 29.0214 22.783 29.2577C23.0643 29.2914 23.3455 29.2914 23.6268 29.2577Z" fill="#808080" stroke="#808080" stroke-miterlimit="10" stroke-linecap="round" stroke-linejoin="round"/>
<path d="M10.1268 29.2577H12.3767C14.008 29.4939 15.5154 28.3577 15.7517 26.7264C15.7854 26.4452 15.7854 26.1639 15.7517 25.8827V23.6327C15.9879 22.0014 14.8517 20.4939 13.2205 20.2576C12.9392 20.2239 12.658 20.2239 12.3767 20.2576H10.1268C8.49552 20.0214 6.98803 21.1576 6.75179 22.7889C6.71804 23.0701 6.71804 23.3514 6.75179 23.6327V25.8827C6.51554 27.5139 7.65178 29.0214 9.28301 29.2577C9.56426 29.2914 9.8455 29.2914 10.1268 29.2577Z" fill="#808080" stroke="#808080" stroke-miterlimit="10" stroke-linecap="round" stroke-linejoin="round"/>
</svg>
