<svg width="36" height="36" viewBox="0 0 36 36" fill="none" xmlns="http://www.w3.org/2000/svg">
<path d="M25.6315 22.0508V17.4929C25.6315 13.3465 22.2113 9.98438 17.9941 9.98438C13.777 9.98438 10.3571 13.3465 10.3571 17.4929V22.0508L8.99414 26.4544H17.9941H26.9941L25.6315 22.0508Z" stroke="#5A5A5A" stroke-miterlimit="10" stroke-linejoin="round"/>
<path d="M15.8662 7.88184C15.8662 9.03898 16.824 9.97756 18.0004 9.97756C19.1768 9.97756 20.1346 9.03898 20.1346 7.88184C20.1346 6.72471 19.1832 5.78613 18.0004 5.78613C16.8175 5.78613 15.8662 6.72471 15.8662 7.88184Z" stroke="#5A5A5A" stroke-miterlimit="10" stroke-linejoin="round"/>
<path d="M14.4072 26.6787C14.4072 28.633 16.0143 30.2144 18.0007 30.2144C19.9871 30.2144 21.5942 28.633 21.5942 26.6787" stroke="#5A5A5A" stroke-miterlimit="10" stroke-linejoin="round"/>
</svg>
